<svg xmlns="http://www.w3.org/2000/svg" width="88" height="120" viewBox="0 0 88 120">
  <g id="Group_23" data-name="Group 23" transform="translate(-232 -32)">
    <g id="Path_66" data-name="Path 66" transform="translate(232 32)" fill="#fff" stroke-linecap="square">
      <path d="M44,0C68.3,0,88,18.655,88,41.667S42.24,120,42.24,120,0,64.679,0,41.667,19.7,0,44,0Z" stroke="none"/>
      <path d="M 44 3.000007629394531 C 38.44387435913086 3.000007629394531 33.05689239501953 4.029296875 27.98867416381836 6.059295654296875 C 23.10189056396484 8.016624450683594 18.71507263183594 10.81684112548828 14.9500732421875 14.38218688964844 C 11.19660186767578 17.93660736083984 8.251617431640625 22.07135009765625 6.196929931640625 26.67158508300781 C 4.075599670410156 31.42098236083984 3 36.46605682373047 3 41.66665649414063 C 3 44.10634613037109 3.564346313476563 47.15943908691406 4.677360534667969 50.74116516113281 C 5.729942321777344 54.12844085693359 7.28741455078125 58.02413177490234 9.306488037109375 62.3200569152832 C 12.75360107421875 69.65432739257813 17.57379913330078 78.235107421875 23.63320159912109 87.82400512695313 C 31.11003494262695 99.65595245361328 38.66355895996094 110.1357269287109 42.33518218994141 115.1132049560547 C 46.28496932983398 110.1734619140625 54.51905059814453 99.63735198974609 62.66896438598633 87.73238372802734 C 69.23220062255859 78.14514923095703 74.45279693603516 69.56663513183594 78.18576049804688 62.23514938354492 C 80.37039947509766 57.94454956054688 82.05516052246094 54.054931640625 83.19322204589844 50.67436981201172 C 84.39211273193359 47.11307525634766 85 44.08245849609375 85 41.66665649414063 C 85 36.46605682373047 83.92440032958984 31.42098236083984 81.80307006835938 26.67158508300781 C 79.74838256835938 22.07135009765625 76.80339813232422 17.93660736083984 73.0499267578125 14.38218688964844 C 69.28492736816406 10.81684112548828 64.89810943603516 8.016624450683594 60.01132965087891 6.059295654296875 C 54.94310760498047 4.029296875 49.55612564086914 3.000007629394531 44 3.000007629394531 M 44 7.62939453125e-06 C 68.30052947998047 7.62939453125e-06 88 18.65480041503906 88 41.66665649414063 C 88 64.67852783203125 42.2400016784668 120 42.2400016784668 120 C 42.2400016784668 120 0 64.67852783203125 0 41.66665649414063 C 0 18.65480041503906 19.69947052001953 7.62939453125e-06 44 7.62939453125e-06 Z" stroke="none" fill="rgba(195,161,101,0.75)"/>
    </g>
    <g id="Ellipse_28" data-name="Ellipse 28" transform="translate(256 55)" fill="#f5f1e8" stroke="#c3a165" stroke-width="3">
      <circle cx="20" cy="20" r="20" stroke="none"/>
      <circle cx="20" cy="20" r="18.5" fill="none"/>
    </g>
  </g>
</svg>
